<?xml version="1.0" encoding="UTF-8" standalone="no"?>
<svg
   xmlns:dc="http://purl.org/dc/elements/1.1/"
   xmlns:cc="http://creativecommons.org/ns#"
   xmlns:rdf="http://www.w3.org/1999/02/22-rdf-syntax-ns#"
   xmlns:svg="http://www.w3.org/2000/svg"
   xmlns="http://www.w3.org/2000/svg"
   xmlns:sodipodi="http://sodipodi.sourceforge.net/DTD/sodipodi-0.dtd"
   xmlns:inkscape="http://www.inkscape.org/namespaces/inkscape"
   width="175"
   height="175"
   viewBox="0 0 175 175"
   id="svg3412"
   version="1.1"
   inkscape:version="0.91 r13725"
   sodipodi:docname="NewArtCentre.svg">
  <metadata
     id="metadata3424">
    <rdf:RDF>
      <cc:Work
         rdf:about="">
        <dc:format>image/svg+xml</dc:format>
        <dc:type
           rdf:resource="http://purl.org/dc/dcmitype/StillImage" />
        <dc:title></dc:title>
      </cc:Work>
    </rdf:RDF>
  </metadata>
  <defs
     id="defs3422" />
  <sodipodi:namedview
     pagecolor="#ffffff"
     bordercolor="#666666"
     borderopacity="1"
     objecttolerance="10"
     gridtolerance="10"
     guidetolerance="10"
     inkscape:pageopacity="0"
     inkscape:pageshadow="2"
     inkscape:window-width="1446"
     inkscape:window-height="847"
     id="namedview3420"
     showgrid="false"
     inkscape:zoom="2.6861721"
     inkscape:cx="76.154999"
     inkscape:cy="98.679473"
     inkscape:window-x="0"
     inkscape:window-y="0"
     inkscape:window-maximized="0"
     inkscape:current-layer="svg3412" />
  <g
     id="g3414"
     style="fill:#231f20"
     transform="translate(12.099002,71.640988)">
    <path
       d="m 0,0.89 3.593,0 6.51,11.435 0,-11.435 3.193,0 0,16.4 -3.426,0 -6.677,-11.64 0,11.64 -3.193,0 0,-16.4 z m 24.113,4.516 c 0.847,0.38 1.545,0.978 2.096,1.795 0.495,0.723 0.817,1.558 0.964,2.51 0.086,0.557 0.12,1.36 0.105,2.406 l -8.835,0 c 0.05,1.217 0.473,2.07 1.27,2.56 0.483,0.304 1.066,0.456 1.748,0.456 0.723,0 1.31,-0.185 1.76,-0.556 0.247,-0.2 0.465,-0.48 0.653,-0.835 l 3.237,0 c -0.085,0.72 -0.477,1.45 -1.176,2.19 -1.086,1.18 -2.607,1.77 -4.562,1.77 -1.613,0 -3.038,-0.496 -4.27,-1.49 -1.235,-0.995 -1.853,-2.614 -1.853,-4.856 0,-2.1 0.557,-3.712 1.672,-4.832 1.113,-1.12 2.56,-1.682 4.336,-1.682 1.056,0 2.008,0.19 2.853,0.568 z m -4.743,2.74 c -0.45,0.462 -0.73,1.087 -0.846,1.877 l 5.463,0 C 23.93,9.181 23.647,8.543 23.143,8.107 22.637,7.67 22.01,7.453 21.263,7.453 c -0.815,0 -1.446,0.232 -1.893,0.693 z m 14.777,-2.986 3.215,0 1.848,8.735 1.892,-8.734 3.304,0 -3.516,12.129 -3.26,0 -1.902,-8.836 -1.926,8.835 -3.292,0 -3.407,-12.129 3.404,0 1.892,8.702 1.746,-8.7 z m 16.518,-4.27 3.878,0 5.803,16.4 -3.716,0 -1.083,-3.372 -6.04,0 -1.11,3.37 -3.587,0 5.855,-16.398 z m -0.225,10.2 4.2,0 -2.073,-6.454 -2.128,6.454 z M 68.595,4.877 c 0.04,0.004 0.13,0.01 0.272,0.017 l 0,3.25 c -0.2,-0.022 -0.378,-0.038 -0.534,-0.045 -0.156,-0.01 -0.282,-0.014 -0.38,-0.014 -1.274,0 -2.13,0.416 -2.57,1.247 -0.243,0.467 -0.366,1.187 -0.366,2.158 l 0,5.798 -3.193,0 0,-12.128 3.027,0 0,2.115 c 0.49,-0.81 0.918,-1.36 1.28,-1.658 0.595,-0.497 1.366,-0.745 2.315,-0.745 0.06,0 0.11,0.002 0.15,0.005 z m 0.2,2.653 0,-2.257 1.69,0 0,-3.383 3.14,0 0,3.383 1.97,0 0,2.26 -1.97,0 0,6.407 c 0,0.497 0.06,0.808 0.19,0.93 0.124,0.122 0.51,0.184 1.155,0.184 0.097,0 0.198,-0.002 0.306,-0.006 0.108,-0.004 0.213,-0.01 0.317,-0.017 l 0,2.37 -1.503,0.058 c -1.498,0.052 -2.52,-0.208 -3.07,-0.78 -0.355,-0.362 -0.534,-0.922 -0.534,-1.68 l 0,-7.467 -1.69,0 z M 79.657,2.602 c 1.32,-1.35 3.002,-2.024 5.04,-2.024 2.73,0 4.728,0.904 5.99,2.715 0.696,1.016 1.07,2.036 1.122,3.06 l -3.43,0 c -0.218,-0.786 -0.498,-1.38 -0.84,-1.78 -0.61,-0.712 -1.515,-1.068 -2.714,-1.068 -1.22,0 -2.184,0.503 -2.89,1.508 -0.706,1.005 -1.052,2.427 -1.052,4.267 0,1.84 0.37,3.218 1.115,4.134 0.745,0.916 1.69,1.374 2.836,1.374 1.175,0 2.07,-0.393 2.688,-1.18 0.343,-0.422 0.626,-1.057 0.85,-1.902 l 3.405,0 c -0.293,1.788 -1.044,3.242 -2.25,4.362 -1.206,1.12 -2.754,1.68 -4.64,1.68 -2.335,0 -4.17,-0.757 -5.505,-2.27 -1.336,-1.52 -2.004,-3.605 -2.004,-6.253 0.002,-2.866 0.762,-5.073 2.28,-6.623 z m 22.355,2.804 c 0.847,0.38 1.545,0.978 2.096,1.795 0.497,0.723 0.82,1.558 0.966,2.51 0.086,0.557 0.12,1.36 0.105,2.406 l -8.836,0 c 0.05,1.217 0.473,2.07 1.27,2.56 0.483,0.304 1.066,0.456 1.748,0.456 0.723,0 1.31,-0.185 1.76,-0.556 0.247,-0.2 0.465,-0.48 0.653,-0.835 l 3.237,0 c -0.085,0.72 -0.477,1.45 -1.176,2.19 -1.086,1.18 -2.607,1.77 -4.562,1.77 -1.613,0 -3.038,-0.496 -4.27,-1.49 -1.235,-0.995 -1.853,-2.614 -1.853,-4.856 0,-2.1 0.558,-3.712 1.673,-4.832 1.113,-1.12 2.56,-1.682 4.336,-1.682 1.054,0 2.005,0.19 2.85,0.568 z m -4.743,2.74 c -0.45,0.462 -0.73,1.087 -0.848,1.877 l 5.463,0 c -0.057,-0.842 -0.34,-1.48 -0.844,-1.916 -0.505,-0.437 -1.132,-0.654 -1.88,-0.654 -0.814,0 -1.445,0.232 -1.892,0.693 z m 18.836,-2.29 c 0.794,0.656 1.19,1.745 1.19,3.266 l 0,8.167 -3.25,0 0,-7.379 c 0,-0.638 -0.083,-1.128 -0.253,-1.47 -0.31,-0.622 -0.898,-0.934 -1.767,-0.934 -1.067,0 -1.8,0.456 -2.198,1.368 -0.206,0.482 -0.31,1.1 -0.31,1.848 l 0,6.564 -3.17,0 0,-12.102 3.07,0 0,1.77 c 0.405,-0.624 0.79,-1.072 1.152,-1.347 0.65,-0.49 1.474,-0.734 2.47,-0.734 1.25,0 2.272,0.327 3.066,0.983 z m 2.484,1.674 0,-2.257 1.69,0 0,-3.383 3.14,0 0,3.383 1.968,0 0,2.26 -1.97,0 0,6.407 c 0,0.497 0.063,0.808 0.19,0.93 0.125,0.122 0.512,0.184 1.156,0.184 0.097,0 0.2,-0.002 0.307,-0.006 0.107,-0.004 0.215,-0.01 0.318,-0.017 l 0,2.37 -1.502,0.058 c -1.498,0.052 -2.52,-0.208 -3.07,-0.78 -0.356,-0.362 -0.535,-0.922 -0.535,-1.68 l 0,-7.467 -1.69,0 z m 15.298,-2.653 c 0.04,0.004 0.132,0.01 0.273,0.017 l 0,3.25 c -0.2,-0.022 -0.377,-0.038 -0.533,-0.045 -0.155,-0.01 -0.28,-0.014 -0.378,-0.014 -1.277,0 -2.133,0.416 -2.57,1.247 -0.246,0.467 -0.368,1.187 -0.368,2.158 l 0,5.798 -3.192,0 0,-12.128 3.026,0 0,2.115 c 0.49,-0.81 0.916,-1.36 1.28,-1.658 0.593,-0.497 1.364,-0.745 2.313,-0.745 0.06,0 0.11,0.002 0.15,0.005 z m 9.805,0.53 c 0.847,0.38 1.545,0.977 2.096,1.794 0.495,0.723 0.817,1.558 0.964,2.51 0.086,0.557 0.12,1.36 0.105,2.406 l -8.835,0 c 0.05,1.217 0.473,2.07 1.27,2.56 0.483,0.304 1.066,0.456 1.748,0.456 0.723,0 1.31,-0.185 1.76,-0.556 0.247,-0.2 0.465,-0.48 0.653,-0.835 l 3.237,0 c -0.085,0.72 -0.477,1.45 -1.176,2.19 -1.086,1.18 -2.607,1.77 -4.562,1.77 -1.613,0 -3.038,-0.496 -4.27,-1.49 -1.235,-0.995 -1.853,-2.614 -1.853,-4.856 0,-2.1 0.557,-3.712 1.672,-4.832 1.113,-1.12 2.56,-1.682 4.336,-1.682 1.056,0 2.008,0.19 2.853,0.568 z m -4.743,2.74 c -0.45,0.46 -0.73,1.086 -0.846,1.876 l 5.463,0 c -0.057,-0.842 -0.34,-1.48 -0.844,-1.916 -0.506,-0.437 -1.133,-0.654 -1.88,-0.654 -0.815,0 -1.446,0.232 -1.893,0.693 z"
       id="path3416"
       inkscape:connector-curvature="0" />
    <text
       transform="translate(146.808,17.289)"
       font-size="24"
       id="text3418"
       style="font-size:24px;font-family:Helvetica-Bold">.</text>
  </g>
</svg>
